<svg id="Layer_1" data-name="Layer 1" xmlns="http://www.w3.org/2000/svg" viewBox="0 0 100.81 76.42"><path fill="currentColor" d="M54.87,13.85v-2a.76.76,0,0,0-.75-.75H48.83a.76.76,0,0,1-.76-.76V5.46a.77.77,0,0,1,.69-.76L56,4.08,56,3.69c.24-1.46.35-2.4-.37-3.17a.72.72,0,0,0-.54-.21H48.31L44.05.9a.76.76,0,0,0-.66.75V24.31a.77.77,0,0,0,.85.76l2.43-.28a.75.75,0,0,0,.67-.71l.48-8.34a.76.76,0,0,1,.7-.72l5.65-.42A.75.75,0,0,0,54.87,13.85Z"/><path fill="currentColor" d="M58.88,73.14a.73.73,0,0,0,.63.27l9-.6q-.36-.6-.75-1.17l0-.06c-2.06-2.5-4.18-5-6.3-7.61q-2.34-2.8-4.66-5.62c-.47-.56-.88-1.15-1.28-1.72-.17-.24-.34-.49-.52-.73l-.43-.59.85-1.15c.25-.35.46-.63.68-.91l1.64-2q3.45-4.34,6.95-8.63a3.35,3.35,0,0,0,.9-2.75.76.76,0,0,0-.69-.66L58,38.58a.78.78,0,0,0-.67.29l-6.94,9.06a.76.76,0,0,1-1.19,0L42.6,40a.76.76,0,0,0-.58-.27l-1.46,0c-1.67,0-3.25,0-4.82.05a1.62,1.62,0,0,0-1.41.69,1.79,1.79,0,0,0,.15,1.7,12.07,12.07,0,0,0,1.1,1.45c1.93,2.57,3.8,5.08,5.72,7.66l3.25,4.36-.42.59c-1.76,2.46-3.65,4.85-5.47,7.16C36.43,66.13,34.14,69,32,72.17a.76.76,0,0,0,.57,1.18l6.93.51a.78.78,0,0,0,.65-.29l8.7-11a.76.76,0,0,1,1.17,0Z"/><path fill="currentColor" d="M76.08,26.78c.35,0,.64.08.92.14,3.07.67,5.36-.13,7-2.43a6.4,6.4,0,0,0,0-8,36,36,0,0,0-9.19-8,.75.75,0,0,0-1,.14L59.38,24.72a.76.76,0,0,0,.09,1.1l2.51,2a.77.77,0,0,0,1-.08l5.52-5.94a.76.76,0,0,1,1.09,0l1.15,1.16a.76.76,0,0,1,.2.73L68.76,32a.77.77,0,0,0,.14.67l2.27,2.79a.76.76,0,0,0,1.32-.26l2.6-8.56ZM72.3,18.07,72,17.72l3.15-3.25.34.18c3.44,1.9,4.84,4.25,4.16,7a.71.71,0,0,1-.19.25,1.1,1.1,0,0,1-.32.13C76.61,21.9,74.89,20.9,72.3,18.07Z"/><path fill="currentColor" d="M28.27,38.29a.75.75,0,0,0-.72-1h-5l-3.31,0c-4.23,0-8.6.06-12.89.15H6.25A31.47,31.47,0,0,0,3,37.94a.77.77,0,0,0-.61.63l-1,6.12a.75.75,0,0,0,.4.8l21,10.69a.77.77,0,0,0,1.09-.52l.83-3.8a.77.77,0,0,0-.36-.82l-3.95-2.28a.75.75,0,0,1-.34-.87l1.53-5.23a.76.76,0,0,1,.73-.54h4.23a.75.75,0,0,0,.72-.53ZM15,46.21,9.79,43.75A.77.77,0,0,1,9.36,43v-.18a.76.76,0,0,1,.72-.7L16,41.82a.75.75,0,0,1,.78.93l-.71,3A.76.76,0,0,1,15,46.21Z"/><path fill="currentColor" d="M16.2,69.8,15.31,63a.76.76,0,0,0-.83-.66l-2.8.29a.74.74,0,0,0-.68.75v6.52a.77.77,0,0,1-.8.76l-2.88-.15a.76.76,0,0,1-.72-.7l-.76-9.5a.75.75,0,0,0-.8-.69l-3.75.21a.77.77,0,0,0-.71.64,23.38,23.38,0,0,0-.26,2.52.15.15,0,0,0,0,.07c.06,3.25.19,6.59.32,9.82l.06,1.68c0,.39.08.78.15,1.24,0,.13,0,.26.05.39H25.15a.76.76,0,0,0,.76-.82l-.37-4.16a.75.75,0,0,0-.75-.7H17A.76.76,0,0,1,16.2,69.8Z"/><path fill="currentColor" d="M74.71,42.38a.78.78,0,0,0-.63.82c.09,1.16.09,2.3.08,3.42a17.83,17.83,0,0,0,.89,7,.76.76,0,0,0,.84.45l2.36-.43a.75.75,0,0,0,.62-.8l-.34-5.58a.76.76,0,0,1,.66-.8l4.88-.65a.76.76,0,0,1,.86.65l.52,4a.76.76,0,0,0,.93.63L89,50.43a.76.76,0,0,0,.59-.82l-.47-4.22a.77.77,0,0,1,.66-.84L94,44a.77.77,0,0,1,.83.53l1.84,6.06a.77.77,0,0,0,.78.54l2.3-.16a.75.75,0,0,0,.67-1L97.32,39.32a.74.74,0,0,0-.85-.53Z"/><path fill="currentColor" d="M79.93,68a.77.77,0,0,1,.79-.69l4.29.21L85,68c.17,3.22.27,5,.87,5.48.38.31,1.17.26,2.42.08a.77.77,0,0,0,.66-.69l.36-4.6a.75.75,0,0,1,.79-.7l4.73.26a.77.77,0,0,1,.72.76v6a.76.76,0,0,0,.65.75l2.45.34a.76.76,0,0,0,.87-.75V64a.76.76,0,0,0-.76-.76H76.27a.76.76,0,0,0-.76.76v9.85a.77.77,0,0,0,.68.76l2.32.25a.76.76,0,0,0,.84-.68Z"/><path fill="currentColor" d="M20.51,18.81a63.9,63.9,0,0,1,5.23,5.46,51,51,0,0,0,6.38,6.43.76.76,0,0,0,1.08-.14L35.12,28a.74.74,0,0,0,0-1L24.49,15.58a.76.76,0,0,1,0-1l4.76-5a.76.76,0,0,0,0-1.09L26.89,6.36a.74.74,0,0,0-1,0L23.32,8.75c-3.72,3.46-7.24,6.73-10.75,10.08l-.09.09a12.29,12.29,0,0,0-1,1.43.76.76,0,0,0,.16.94l2.26,2a.76.76,0,0,0,1,0l5.22-4.77Z"/></svg>